<svg width="186.709991" height="43.723877" viewBox="0 0 186.71 43.7239" fill="none" xmlns="http://www.w3.org/2000/svg" xmlns:xlink="http://www.w3.org/1999/xlink">
	<desc>
			Created with Pixso.
	</desc>
	<defs/>
	<path id="Vector" d="M46.59 32.57L46.59 3.62L63.58 3.62L63.58 7.25L50.11 7.25L50.11 16.15L62.2 16.15L62.2 19.78L50.11 19.78L50.11 28.86L64.52 28.86L64.52 32.49L46.59 32.49L46.59 32.57ZM82.37 32.57L76.53 24.88L70.7 32.57L66.58 32.57L74.56 22.29L66.15 11.66L70.78 11.66L76.53 19.61L82.37 11.66L86.91 11.66L78.94 22.29L86.49 32.57L82.37 32.57ZM92.15 29.46L92.15 43.72L88.63 43.72L88.63 22.37C88.63 16.93 92.75 11.14 99.19 11.14C105.71 11.14 110.6 15.29 110.6 22.12C110.6 28.77 105.62 33.35 99.96 33.35C97.21 33.35 93.52 32.14 92.15 29.46ZM106.91 22.12C106.91 17.45 103.9 14.69 98.58 14.94C96.01 15.03 92.06 16.93 92.41 23.59C92.49 25.75 94.72 29.81 99.61 29.81C103.82 29.81 106.91 27.39 106.91 22.12ZM113.6 32.57L113.6 11.66L117.12 11.66L117.12 13.91C118.83 11.92 121.49 11.23 124.33 11.23L124.33 15.03C123.9 14.94 119.69 14.42 117.12 19.96L117.12 32.66L113.6 32.66L113.6 32.57ZM125.27 22.12C125.27 16.07 129.56 11.14 135.48 11.14C142.86 11.14 145.6 16.07 145.6 22.37L145.6 24.1L129.13 24.1C129.39 28.08 132.91 30.15 136.17 30.07C138.57 29.98 140.2 29.29 141.92 27.56L144.23 29.98C142.09 32.05 139.34 33.44 136 33.44C129.73 33.35 125.27 28.68 125.27 22.12L125.27 22.12ZM135.22 14.69C131.88 14.69 129.3 17.62 129.13 20.82L141.92 20.82C141.92 17.71 139.69 14.68 135.22 14.68L135.22 14.69ZM147.41 29.63L149.98 27.3C149.89 27.3 151.27 28.68 151.44 28.77C152.04 29.29 152.64 29.63 153.41 29.81C155.64 30.41 159.68 30.24 160.02 27.13C160.19 25.4 158.9 24.45 157.45 23.84C155.56 23.15 153.5 22.89 151.61 22.03C149.47 21.08 148.09 19.44 148.09 17.02C148.09 10.71 157.02 9.67 161.05 12.61C161.22 12.78 163.19 14.6 163.11 14.6L160.53 16.67C159.25 15.12 158.05 14.34 155.3 14.34C153.93 14.34 152.04 14.94 151.7 16.41C151.18 18.49 153.5 19.27 155.04 19.7C157.1 20.21 159.33 20.56 161.14 21.68C163.62 23.24 164.23 26.61 163.28 29.2C162.25 32.05 159.16 33.18 156.42 33.26C153.16 33.44 150.32 32.4 148.01 30.07C147.84 30.07 147.41 29.63 147.41 29.63ZM165.51 29.63L168.09 27.3C168 27.3 169.37 28.68 169.54 28.77C170.14 29.29 170.75 29.63 171.52 29.81C173.75 30.41 177.78 30.24 178.13 27.13C178.3 25.4 177.01 24.45 175.55 23.84C173.66 23.15 171.6 22.89 169.72 22.03C167.57 21.08 166.2 19.44 166.2 17.02C166.2 10.71 175.12 9.67 179.15 12.61C179.33 12.78 181.3 14.6 181.21 14.6L178.64 16.67C177.35 15.12 176.15 14.34 173.41 14.34C172.03 14.34 170.15 14.94 169.8 16.41C169.29 18.49 171.6 19.27 173.15 19.7C175.21 20.21 177.44 20.56 179.24 21.68C181.73 23.24 182.33 26.61 181.39 29.2C180.36 32.05 177.27 33.18 174.52 33.26C171.26 33.44 168.43 32.4 166.11 30.07C165.94 30.07 165.51 29.63 165.51 29.63L165.51 29.63ZM182.24 11.66L182.24 9.41L181.47 9.41L181.47 8.98L183.53 8.98L183.53 9.41L182.76 9.41L182.76 11.66L182.24 11.66ZM186.1 11.66L186.1 9.59L185.33 11.66L185.16 11.66L184.39 9.59L184.39 11.66L183.96 11.66L183.96 8.98L184.65 8.98L185.33 10.8L186.02 8.98L186.71 8.98L186.71 11.66L186.1 11.66ZM22.73 32.57L20.16 25.66L6.26 25.66L3.68 32.57L0 32.57L11.15 3.62L15.18 3.62L26.25 32.57L22.73 32.57ZM13.04 7.77L7.8 22.12L18.7 22.12L13.04 7.77ZM28.57 32.57L32.17 32.57L32.17 3.62L28.57 3.62L28.57 32.57ZM37.58 32.57L41.18 32.57L41.18 12.09L37.58 12.09L37.58 32.57ZM44.61 5.44L44.61 5.09C41.87 5.01 39.64 2.76 39.55 0L39.04 0C38.95 2.76 36.72 5.01 33.97 5.09L33.97 5.44C36.72 5.53 38.95 7.77 39.04 10.54L39.55 10.54C39.64 7.77 41.87 5.53 44.61 5.44Z" fill="#222222" fill-opacity="1.000000" fill-rule="evenodd"/>
</svg>
