<svg width="168.285889" height="56.512939" viewBox="0 0 168.286 56.5129" fill="none" xmlns="http://www.w3.org/2000/svg" xmlns:xlink="http://www.w3.org/1999/xlink">
	<desc>
			Created with Pixso.
	</desc>
	<defs/>
	<path id="Vector" d="M61.36 24.86C61.53 21.11 64.7 18.2 68.44 18.37L68.54 18.38C71.87 18.17 74.73 20.71 74.93 24.04C74.95 24.32 74.95 24.59 74.93 24.86L61.36 24.86ZM68.53 12.49C59.55 12.49 55.62 18.53 54.37 23.64C54.02 25.01 53.85 26.43 53.85 27.85C53.8 31.21 54.81 34.51 56.74 37.26C59.65 41.02 64.14 43.23 68.89 43.23C73.73 43.41 76.97 42.58 79.45 41.17C79.94 40.85 80.18 40.25 80.04 39.68L80.04 35.76C80.04 34.96 79.56 34.58 78.86 35.06C75.96 36.93 72.52 37.76 69.1 37.42C65.06 37.36 61.69 34.3 61.26 30.27L81.21 30.27C81.66 30.27 82.03 29.91 82.03 29.46C82.38 23.99 80.8 12.49 68.53 12.49ZM20.17 37.86L11.41 37.86C10.28 37.83 9.19 37.45 8.3 36.77C7.36 36.11 6.81 35.03 6.83 33.87C6.83 32.29 7.9 29.11 13.24 29.11L20.17 29.11L20.17 37.86L20.17 37.86ZM26.69 24.81C26.69 20.8 25.8 17.75 23.87 15.65C21.95 13.54 18.07 12.49 14.48 12.49C10.88 12.48 7.33 13.42 4.21 15.23C4.01 15.35 3.89 15.57 3.89 15.8L4.16 20.22C4.24 20.65 4.65 20.94 5.07 20.86C5.22 20.84 5.35 20.78 5.45 20.68C9.86 17.96 15.14 17.46 17.83 18.82C19.33 19.69 20.24 21.33 20.17 23.07L20.17 23.72L12.84 23.72C9.68 23.72 0.01 24.9 0.01 33.8L0.01 33.9C-0.14 36.65 1.02 39.31 3.14 41.05C5.43 42.67 8.19 43.46 10.98 43.3L25.83 43.3C26.31 43.3 26.7 42.91 26.7 42.43L26.7 24.78L26.69 24.81L26.69 24.81ZM100.42 37.35C96.8 37.35 94.18 34.69 93.08 31.38C92.3 29.09 92.3 26.61 93.08 24.32C94.18 21.01 96.8 18.35 100.42 18.35C108.53 18.35 108.8 26.65 108.8 27.85C108.8 29.05 108.53 37.35 100.42 37.35ZM115.46 27.86C115.52 24.5 114.51 21.2 112.57 18.45C107.37 11.72 97.71 10.5 91 15.72C89.98 16.51 89.07 17.43 88.28 18.45C84.37 24.11 84.37 31.61 88.28 37.28C91.14 41.09 95.66 43.31 100.43 43.24C103.5 43.25 106.52 42.34 109.08 40.63L109.08 44.35C109.08 49.4 104.67 50.32 101.86 50.49C99.92 50.56 97.98 50.45 96.06 50.17C95.28 50.06 94.74 50.17 94.74 51.01L94.74 55.48C94.76 55.9 95.12 56.23 95.54 56.21L95.54 56.21C102.08 56.78 106.48 56.66 109.79 54.76C112.11 53.39 113.83 51.19 114.62 48.61C115.2 46.62 115.48 44.54 115.45 42.47L115.45 27.86L115.46 27.86ZM137.07 14.22L137.07 17.75C137.14 18.26 136.78 18.72 136.28 18.79C136.15 18.8 136.02 18.79 135.89 18.75C130.19 17.58 126.68 20.12 126.68 25.4L126.68 42.47C126.68 42.95 126.29 43.34 125.81 43.34L120.77 43.34C120.29 43.34 119.9 42.95 119.9 42.47L119.9 25.04C119.84 21.7 121.19 18.5 123.62 16.22C126.09 13.8 129.4 12.46 132.86 12.48C134.04 12.48 135.22 12.59 136.38 12.81C136.98 13.01 137.07 13.36 137.07 14.27L137.07 14.22L137.07 14.22ZM38.1 42.47C38.1 42.95 37.71 43.34 37.23 43.34L32.18 43.34C31.7 43.34 31.31 42.95 31.31 42.47L31.31 0.87C31.31 0.39 31.69 0 32.17 0L37.22 0C37.7 0 38.09 0.38 38.09 0.87L38.09 42.47L38.1 42.47L38.1 42.47ZM49.95 42.47C49.95 42.95 49.56 43.34 49.08 43.34L44.04 43.34C43.56 43.34 43.17 42.95 43.17 42.47L43.17 0.87C43.17 0.38 43.56 0 44.04 0L49.08 0C49.56 0 49.95 0.38 49.95 0.87L49.95 42.47ZM160.58 31.4C159.48 34.71 156.86 37.29 153.23 37.37C149.6 37.45 146.99 34.71 145.89 31.4C145.11 29.12 145.11 26.63 145.89 24.34C147 21.04 149.62 18.46 153.23 18.38C156.85 18.29 159.48 21.04 160.58 24.34C161.36 26.63 161.36 29.11 160.58 31.39L160.58 31.4ZM165.39 18.46C160.19 11.73 150.53 10.51 143.82 15.73C142.8 16.52 141.88 17.44 141.09 18.46C139.17 21.22 138.16 24.51 138.21 27.87C138.16 31.24 139.17 34.53 141.09 37.29C146.3 44.02 155.96 45.24 162.67 40.02C163.69 39.23 164.6 38.31 165.39 37.29C167.32 34.53 168.33 31.24 168.28 27.87C168.33 24.51 167.32 21.22 165.39 18.46Z" fill="#222222" fill-opacity="1.000000" fill-rule="evenodd"/>
</svg>
