<svg width="193.000000" height="70.000000" viewBox="0 0 193 70" fill="none" xmlns="http://www.w3.org/2000/svg" xmlns:xlink="http://www.w3.org/1999/xlink">
	<desc>
			Created with Pixso.
	</desc>
	<defs>
		<clipPath id="clip1_116">
			<rect id="Frame" rx="0.000000" width="192.000000" height="69.000000" transform="translate(0.500000 0.500000)" fill="white" fill-opacity="0"/>
		</clipPath>
	</defs>
	<g clip-path="url(#clip1_116)">
		<path id="Vector" d="M110.34 27.11C112.67 27.11 114.11 27.93 114.91 28.62L115.13 28.82L115.27 28.55C115.63 27.87 116.36 27.5 117.3 27.5L119.6 27.5L119.58 43.4C119.58 49.46 114.66 51.62 110.44 51.62C108.39 51.62 106.12 51.07 104.38 50.15L104.04 49.96L104.59 48.54L104.99 47.57C105.41 46.52 106.03 46.26 107.08 46.58C107.88 46.87 109.09 47.19 110.41 47.19C113.13 47.19 114.63 45.91 114.63 43.6L114.63 43.11L114.25 43.4C113.26 44.15 112.01 44.51 110.44 44.51C105.82 44.51 102.6 40.91 102.6 35.75C102.6 30.58 105.71 27.11 110.34 27.11ZM137.55 27.21C140.11 27.21 143.91 28.29 143.91 31.27L143.91 33.53L141.32 33.53C141.1 33.53 140 33.46 139.63 32.25L139.61 32.16C139.45 31.62 138.44 31.31 137.55 31.31C134.82 31.31 132.9 33.32 132.9 36.2C132.9 39.54 135.37 41.04 137.81 41.04C140.33 41.04 142.28 39.14 142.52 38.9L142.54 38.88L142.81 38.59L144.86 41.99L144.73 42.15C144.7 42.18 142.15 45.26 137.45 45.26C132.04 45.26 128.12 41.47 128.12 36.24C128.12 31.01 132.08 27.21 137.55 27.21ZM28.74 27.19C34.01 27.19 37.84 30.97 37.84 36.17C37.84 41.37 34.01 45.15 28.74 45.15C23.48 45.15 19.67 41.37 19.67 36.17C19.67 30.97 23.48 27.19 28.74 27.19ZM48.19 27.19C53.46 27.19 57.29 30.97 57.29 36.17C57.29 41.37 53.46 45.15 48.19 45.15C42.93 45.15 39.12 41.37 39.12 36.17C39.12 30.97 42.93 27.19 48.19 27.19L48.19 27.19ZM154.35 27.19C159.62 27.19 163.45 30.97 163.45 36.17C163.45 41.37 159.62 45.15 154.35 45.15C149.09 45.15 145.28 41.37 145.28 36.17C145.28 30.97 149.09 27.19 154.35 27.19ZM124.42 39.31C126.01 39.31 127.31 40.6 127.31 42.2C127.31 43.79 126.01 45.08 124.42 45.08C122.83 45.08 121.54 43.79 121.54 42.2C121.54 40.6 122.83 39.31 124.42 39.31L124.42 39.31ZM79 27.54C80.75 27.54 81.6 28.4 81.6 30.17L81.59 44.87L81.58 44.87L81.58 44.88L80.42 44.88L79.26 44.88C79.23 44.88 79.2 44.88 79.17 44.88L76.66 44.88L76.66 40.95L76.66 40.95L76.65 27.54L79 27.54L79 27.54ZM61.42 20.87C62.79 20.87 64.06 21.15 64.06 23.18L64.06 33.36L64.85 33.36C65.45 33.36 65.84 33.21 66.04 32.92L69.52 27.54L75.15 27.54L70.51 34.42C70.28 34.77 70.03 35.07 69.79 35.32L69.62 35.48L69.78 35.65C70.03 35.91 70.27 36.24 70.47 36.62L72.36 40.18L75.2 44.88L71.38 44.88C69.94 44.88 69.18 44.64 68.41 43.24L65.66 38.05C65.48 37.75 65.09 37.68 64.52 37.68L64.06 37.68L64.06 44.88L59.07 44.88L59.06 20.87L61.41 20.87L61.42 20.87ZM94.68 27.15C98.73 27.15 100.87 29.47 100.87 33.85L100.88 44.88L98.52 44.88C96.72 44.88 95.89 44.04 95.89 42.24L95.89 34.69C95.89 32.58 95.29 31.77 93.74 31.77C91.82 31.77 90.28 32.93 89.73 34.81C89.52 35.42 89.42 36.1 89.42 36.88L89.42 44.88L84.47 44.88L84.46 27.54L86.69 27.54C88.04 27.54 88.94 28.1 89.21 29.11L89.31 29.53L89.62 29.23C90.52 28.28 92.14 27.15 94.68 27.15ZM185.57 27.2L185.81 27.21C189.48 27.3 191.34 29.53 191.34 33.85L191.34 44.87L189.11 44.87C187.36 44.87 186.58 44.09 186.58 42.35L186.58 34.63C186.58 32.42 186.04 31.6 184.59 31.6C182.58 31.6 181.28 33.4 180.9 35.16C180.71 35.79 180.63 36.41 180.63 37.25L180.63 44.87L175.87 44.87L175.87 34.63C175.87 32.72 175.24 31.72 173.95 31.6C171.87 31.4 170.63 33.38 170.17 35.23C170.01 35.92 169.92 36.58 169.92 37.25L169.92 44.87L165.2 44.87L165.22 27.6L167.3 27.6C168.59 27.6 169.45 28.13 169.71 29.09L169.89 29.76L170.36 29.25C171.08 28.49 172.62 27.21 174.93 27.21C177.12 27.21 178.7 28.05 179.62 29.72L179.9 30.23L180.26 29.78C181.53 28.17 183.52 27.21 185.58 27.21L185.57 27.2ZM4.68 20.88L9.86 20.88C14.4 20.88 17.33 23.32 17.33 27.09C17.33 29.56 16.09 30.99 15.35 31.62L14.71 32.16L15.44 32.57C17.21 33.57 18.26 35.52 18.26 37.81C18.26 42.05 15.01 44.8 9.96 44.8L4.04 44.8L4.03 44.8L1.65 44.8L1.65 23.37C1.66 22.02 2.74 20.93 4.09 20.88L4.68 20.88ZM28.74 31.39C26.25 31.39 24.53 33.36 24.53 36.17C24.53 38.98 26.25 40.95 28.74 40.95C31.27 40.95 32.98 39.03 32.98 36.17C32.98 33.36 31.24 31.39 28.74 31.39L28.74 31.39ZM48.19 31.39C45.71 31.39 43.98 33.36 43.98 36.17C43.98 38.98 45.71 40.95 48.19 40.95C50.72 40.95 52.43 39.03 52.43 36.17C52.43 33.36 50.68 31.39 48.19 31.39L48.19 31.39ZM154.35 31.39C151.87 31.39 150.14 33.36 150.14 36.17C150.14 38.98 151.87 40.95 154.35 40.95C156.88 40.95 158.59 39.03 158.59 36.17C158.59 33.36 156.84 31.39 154.35 31.39L154.35 31.39ZM10.29 34.25L7.54 34.25C6.66 34.37 6.26 34.9 6.26 35.93L6.26 40.75L10.29 40.75C12.29 40.75 13.52 39.53 13.52 37.48C13.52 35.48 12.25 34.25 10.29 34.25L10.29 34.25ZM111.05 31.47C107.89 31.47 107.64 34.64 107.64 35.62C107.64 37.83 108.61 40.18 111.31 40.18C112.87 40.18 114.72 39.42 114.72 35.78C114.72 31.92 112.63 31.47 111.05 31.47L111.05 31.47ZM9.82 24.8L7.76 24.8C6.73 24.87 6.26 25.4 6.26 26.51L6.26 30.55L9.89 30.55C11.93 30.55 12.65 28.98 12.65 27.63C12.65 25.86 11.59 24.8 9.82 24.8L9.82 24.8ZM78.93 20.12C80.53 20.12 81.82 21.41 81.82 23.01C81.82 24.6 80.53 25.89 78.93 25.89C77.34 25.89 76.05 24.6 76.05 23.01C76.05 21.41 77.34 20.12 78.93 20.12Z" fill="#222222" fill-opacity="1.000000" fill-rule="evenodd"/>
	</g>
</svg>
