<svg width="192.000000" height="70.000000" viewBox="0 0 192 70" fill="none" xmlns="http://www.w3.org/2000/svg" xmlns:xlink="http://www.w3.org/1999/xlink">
	<desc>
			Created with Pixso.
	</desc>
	<defs/>
	<path id="Vector" d="M17.74 27.69L17.74 21.48L39.6 21.48L45.57 38.11L51.62 21.48L58.28 21.48L48.59 48.29L42.63 48.29L35.11 27.69L29.45 27.69L29.45 48.29L23.01 48.29L23.01 27.69L17.74 27.69Z" fill="#222222" fill-opacity="1.000000" fill-rule="evenodd"/>
	<path id="Vector" d="M6.97 33.75L6.97 26.84C14.18 26.37 14.02 34.14 6.97 33.75ZM12.78 48.29L20.15 48.29L13.94 37.56C21.62 34.92 19.53 21.32 11 21.48L0.22 21.48L0.22 48.29L6.97 48.29L6.97 38.34L12.78 48.29ZM134.56 21.48L142.16 21.48L149.37 48.29L144.02 48.29L142.78 43.55L133.78 43.55L132.54 48.29L127.35 48.29L134.56 21.48L134.56 21.48ZM141.46 38.65L135.1 38.65L138.28 26.76L141.46 38.65Z" fill="#222222" fill-opacity="1.000000" fill-rule="evenodd"/>
	<path id="Vector" d="M159.29 38.96L159.29 33.21L171.15 33.21L171.15 42.54C169.29 44.95 168.05 46.81 165.57 47.98C163.94 48.75 161.3 49.38 158.9 49.38C155.95 49.38 153.55 48.83 151.69 47.75C149.83 46.58 148.67 45.1 147.66 42.92C146.65 40.67 146.42 38.11 146.42 35.23C146.42 32.2 146.81 29.48 147.97 27.31C149.05 25.05 150.68 23.42 152.85 22.25C154.56 21.32 156.34 20.93 159.21 20.93C162 20.93 164.02 21.16 165.41 21.71C166.81 22.25 167.89 23.11 168.82 24.27C169.67 25.44 170.37 26.92 170.84 28.7L164.33 30.18C164.02 29.09 163.55 28.32 162.78 27.77C162.08 27.23 161.15 26.84 160.06 26.68C157.82 26.37 156.03 27.62 155.02 28.86C154.02 30.18 153.55 32.2 153.55 35.08C153.55 38.03 154.02 40.59 155.02 41.91C156.03 43.16 157.5 43.86 159.29 43.86C160.14 43.86 160.99 43.7 161.77 43.39C162.54 43.16 163.4 42.69 164.4 41.99L164.4 38.96L159.29 38.96L159.29 38.96ZM180.68 27.54L177.19 27.54L177.19 42.3L180.68 42.3C187.19 42.3 187.35 27.54 180.68 27.54ZM179.67 21.48L171.15 21.48L171.15 48.37L179.67 48.37C195.64 48.37 195.95 21.48 179.67 21.48Z" fill="#222222" fill-opacity="1.000000" fill-rule="evenodd"/>
	<mask id="mask1_174" mask-type="alpha" maskUnits="userSpaceOnUse" x="0.000000" y="0.000000" width="192.000000" height="70.000000">
		<path id="Vector" d="M0 70L192 70L192 0L0 0L0 70Z" fill="#FFFFFF" fill-opacity="1.000000" fill-rule="nonzero"/>
	</mask>
	<g mask="url(#mask1_174)">
		<path id="Vector" d="M52.39 48.29L131.07 48.29L131.07 21.48L52.39 21.48L52.39 48.29Z" fill="#FFFFFF" fill-opacity="1.000000" fill-rule="evenodd"/>
	</g>
	<g mask="url(#mask1_174)">
		<path id="Vector" d="M51.62 48.29L131.85 48.29L131.85 21.48L51.62 21.48L51.62 48.29L51.62 48.29ZM53.17 46.89L130.37 46.89L130.37 22.95L53.17 22.95L53.17 46.89L53.17 46.89Z" fill="#222222" fill-opacity="1.000000" fill-rule="evenodd"/>
	</g>
	<g mask="url(#mask1_174)">
		<path id="Vector" d="M70.84 41.76L57.35 41.76L57.35 27.93L70.45 27.93L70.45 30.65L61 30.65L61 33.44L69.76 33.44L69.76 35.39L61 35.39L61 39.43L70.84 39.43L70.84 41.76ZM107.43 41.76L103.32 41.76L103.24 38.03C103.24 36.09 100.84 36.16 99.29 36.16L96.73 36.16L96.73 41.76L92.47 41.76L92.47 27.92L102.08 27.92C108.36 27.92 109.83 33.06 105.18 34.92C106.34 35.31 107.35 36.48 107.35 37.95L107.43 41.76L107.43 41.76ZM96.58 34.07L100.61 34.07C101.69 34.07 102.55 33.91 103.01 33.68C103.48 33.37 103.79 32.9 103.79 32.28C103.79 31.11 102.78 30.49 100.84 30.49L96.58 30.49L96.58 34.07ZM118.51 27.69C119.75 27.69 120.92 27.85 121.92 28.24C123.01 28.55 123.94 29.01 124.71 29.64C125.49 30.26 126.03 31.04 126.5 31.89C126.89 32.82 127.12 33.75 127.12 34.84C127.12 35.85 126.96 36.86 126.5 37.72C126.11 38.58 125.49 39.35 124.71 39.97C123.94 40.59 123.01 41.14 122 41.45C120.92 41.76 119.75 41.99 118.51 41.99C117.27 41.99 116.03 41.76 115.03 41.45C113.94 41.14 113.01 40.59 112.31 39.97C111.54 39.35 110.92 38.65 110.53 37.72C110.06 36.86 109.83 35.93 109.83 34.84C109.83 33.75 110.06 32.74 110.53 31.89C110.92 31.04 111.54 30.26 112.31 29.64C113.09 29.01 114.02 28.55 115.03 28.24C116.11 27.85 117.27 27.69 118.51 27.69ZM118.51 39.51C119.21 39.51 119.91 39.43 120.61 39.2C121.23 38.96 121.77 38.65 122.23 38.26C122.7 37.88 123.01 37.41 123.32 36.79C123.55 36.24 123.71 35.54 123.71 34.84C123.71 34.07 123.55 33.44 123.32 32.82C123.01 32.28 122.7 31.81 122.23 31.42C121.77 31.03 121.23 30.72 120.61 30.49C119.91 30.26 119.29 30.18 118.51 30.18C117.82 30.18 117.12 30.26 116.42 30.49C115.8 30.72 115.26 31.04 114.79 31.42C114.33 31.81 113.94 32.28 113.71 32.9C113.48 33.44 113.32 34.07 113.32 34.84C113.32 35.54 113.48 36.24 113.71 36.79C113.94 37.41 114.33 37.88 114.79 38.26C115.26 38.65 115.8 38.96 116.42 39.2C117.04 39.43 117.74 39.51 118.51 39.51ZM74.8 27.93L78.28 27.93L78.28 37.72C78.44 40.44 85.26 40.36 85.1 37.72L85.1 27.92L88.9 27.92L88.82 37.95C88.9 43.08 74.87 43.08 74.79 37.95L74.79 27.93L74.8 27.93ZM125.96 27.85C124.87 27.85 124.02 26.99 124.02 25.9C124.02 24.82 124.87 23.96 125.96 23.96C127.04 23.96 127.89 24.82 127.89 25.9C127.89 26.99 127.04 27.85 125.96 27.85ZM125.96 27.54C126.89 27.54 127.58 26.76 127.58 25.9C127.58 24.97 126.89 24.2 125.96 24.2C125.03 24.2 124.33 24.97 124.33 25.9C124.33 26.76 125.03 27.54 125.96 27.54ZM125.65 25.67L126.34 25.67C126.34 25.6 126.42 25.6 126.42 25.6C126.5 25.52 126.5 25.44 126.5 25.44C126.5 25.36 126.5 25.28 126.42 25.21C126.42 25.21 126.34 25.13 126.27 25.13L125.65 25.13L125.65 25.67ZM125.18 26.92L125.18 24.82L126.58 24.82L126.81 25.05C126.89 25.13 126.89 25.28 126.89 25.36C126.89 25.52 126.89 25.67 126.81 25.75C126.65 25.83 126.58 25.9 126.34 25.98C126.42 25.98 126.5 26.06 126.58 26.14C126.65 26.22 126.73 26.3 126.81 26.45L127.12 26.92L126.58 26.92L126.27 26.45C126.19 26.3 126.11 26.14 126.03 26.14C126.03 26.06 125.96 26.06 125.96 26.06C125.88 25.98 125.8 25.98 125.72 25.98L125.65 25.98L125.65 26.92L125.18 26.92Z" fill="#222222" fill-opacity="1.000000" fill-rule="evenodd"/>
	</g>
</svg>
