<svg width="193.000000" height="70.000000" viewBox="0 0 193 70" fill="none" xmlns="http://www.w3.org/2000/svg" xmlns:xlink="http://www.w3.org/1999/xlink">
	<desc>
			Created with Pixso.
	</desc>
	<defs>
		<clipPath id="clip1_179">
			<rect id="Frame" rx="0.000000" width="192.000000" height="69.000000" transform="translate(0.500000 0.500000)" fill="white" fill-opacity="0"/>
		</clipPath>
	</defs>
	<g clip-path="url(#clip1_179)">
		<path id="Vector" d="M96.11 49.31C102.31 49.31 106.45 45.3 106.45 38.54L106.45 21.23L99.66 21.23L99.66 38.27C99.66 41.41 98.53 42.98 96.15 42.98C93.85 42.98 92.87 41.38 92.87 38.27L92.87 21.23L86.05 21.23L86.05 38.54C86.06 45.45 89.83 49.31 96.11 49.31L96.11 49.31ZM116.52 33.99L115.27 33.99L115.27 27.42L117.06 27.42C120.07 27.42 121.51 28.35 121.51 30.64C121.5 33.13 119.87 33.99 116.52 33.99ZM124.62 22.74C122.75 21.43 120.53 21.23 117.6 21.23L108.4 21.23L108.4 48.88L115.19 48.88L115.19 39.98L117.14 39.98C120.02 39.98 122.2 39.78 123.97 38.73C126.73 37.06 128.37 34.11 128.37 30.53C128.37 27.06 127.09 24.45 124.62 22.74ZM165.88 33.48L176.22 48.88L182.17 48.88L182.17 21.23L175.4 21.23L175.4 36.59L165.22 21.23L159.1 21.23L159.1 48.88L165.88 48.88L165.88 33.48ZM70.07 42.55C66.24 42.55 62.78 39.2 62.78 34.85C62.78 30.8 66.01 27.58 70.15 27.58C74.05 27.58 77.29 30.8 77.29 34.85C77.28 39.35 74.05 42.55 70.07 42.55L70.07 42.55ZM80.01 24.81C77.32 22.16 73.81 20.73 70.1 20.73C66.17 20.73 62.73 22.09 60 24.77C57.28 27.45 55.79 30.96 55.79 34.77C55.79 38.85 57.12 42.27 59.72 45.04C62.45 47.92 65.96 49.39 70.06 49.39C73.92 49.39 77.58 47.88 80.27 45.08C82.88 42.4 84.29 38.85 84.29 34.89C84.3 31.11 82.82 27.57 80.01 24.81ZM143.54 42.55C139.71 42.55 136.25 39.2 136.25 34.85C136.25 30.8 139.49 27.58 143.62 27.58C147.52 27.58 150.76 30.8 150.76 34.85C150.75 39.35 147.51 42.55 143.54 42.55L143.54 42.55ZM153.48 24.81C150.79 22.16 147.27 20.73 143.57 20.73C139.63 20.73 136.2 22.09 133.47 24.77C130.75 27.45 129.26 30.96 129.26 34.77C129.26 38.85 130.59 42.27 133.19 45.04C135.93 47.92 139.43 49.39 143.53 49.39C147.39 49.39 151.05 47.88 153.74 45.08C156.35 42.4 157.76 38.85 157.76 34.89C157.77 31.11 156.29 27.57 153.48 24.81L153.48 24.81ZM8.58 45.03C11.3 47.91 14.78 49.42 18.87 49.42C23.59 49.42 28.04 47.09 30.69 43.24C32.29 40.9 33.07 38.26 33.07 35.14C33.07 34.57 33.03 33.94 32.99 33.31L17.2 33.31L17.2 38.84L25.11 38.84C23.74 41.25 21.45 42.57 18.87 42.57C15.05 42.57 11.62 39.19 11.62 34.79C11.62 30.82 14.82 27.52 18.87 27.52C21.06 27.52 22.85 28.42 24.57 30.2L32.29 30.2C30.07 24.29 24.88 20.67 18.96 20.67C15.02 20.67 11.59 22.07 8.86 24.75C6.13 27.44 4.65 30.94 4.65 34.75C4.64 38.85 5.96 42.27 8.58 45.03L8.58 45.03ZM42.89 33.99L41.56 33.99L41.56 27.42L43.44 27.42C46.44 27.42 47.88 28.35 47.88 30.64C47.88 33.13 46.24 33.99 42.89 33.99ZM48.46 39.39C52.4 38.29 54.74 34.96 54.74 30.48C54.74 27.06 53.45 24.45 50.99 22.74C49.12 21.43 46.9 21.23 43.97 21.23L34.77 21.23L34.77 48.88L41.56 48.88L41.56 39.98L46.86 48.88L55.24 48.88L48.46 39.39ZM184.99 21.37C185.34 21.02 185.76 20.84 186.26 20.84C186.76 20.84 187.19 21.02 187.53 21.37C187.88 21.72 188.06 22.15 188.06 22.64C188.06 23.14 187.88 23.57 187.53 23.92C187.19 24.28 186.77 24.45 186.26 24.45C185.76 24.45 185.33 24.28 184.99 23.92C184.64 23.57 184.46 23.15 184.46 22.64C184.46 22.15 184.63 21.73 184.99 21.37L184.99 21.37ZM186.25 24.74C186.83 24.74 187.33 24.53 187.73 24.12C188.14 23.71 188.34 23.21 188.34 22.64C188.34 22.06 188.13 21.58 187.73 21.17C187.33 20.77 186.83 20.57 186.25 20.57C185.68 20.57 185.18 20.77 184.78 21.17C184.37 21.59 184.17 22.07 184.17 22.64C184.17 23.22 184.38 23.72 184.78 24.12C185.18 24.53 185.67 24.74 186.25 24.74Z" fill="#222222" fill-opacity="1.000000" fill-rule="evenodd"/>
		<path id="Vector" d="M186.57 22.54C186.48 22.58 186.35 22.59 186.18 22.59L185.82 22.59L185.82 21.75L186.17 21.75C186.39 21.75 186.55 21.78 186.65 21.84C186.76 21.89 186.8 22.01 186.8 22.17C186.8 22.36 186.72 22.48 186.57 22.54ZM187.18 23.74C187.17 23.72 187.16 23.69 187.16 23.62C187.16 23.57 187.15 23.5 187.15 23.46L187.15 23.29C187.15 23.18 187.11 23.05 187.03 22.93C186.94 22.81 186.81 22.74 186.63 22.71C186.77 22.69 186.89 22.65 186.96 22.59C187.11 22.5 187.19 22.34 187.19 22.15C187.19 21.86 187.07 21.66 186.83 21.57C186.7 21.51 186.49 21.48 186.2 21.48L185.4 21.48L185.4 23.77L185.8 23.77L185.8 22.88L186.12 22.88C186.33 22.88 186.48 22.9 186.57 22.95C186.72 23.03 186.78 23.21 186.78 23.47L186.78 23.65L186.79 23.73L186.79 23.75C186.79 23.76 186.79 23.77 186.8 23.77L187.18 23.77L187.18 23.74Z" fill="#222222" fill-opacity="1.000000" fill-rule="evenodd"/>
	</g>
</svg>
