<svg width="192.000000" height="70.000000" viewBox="0 0 192 70" fill="none" xmlns="http://www.w3.org/2000/svg" xmlns:xlink="http://www.w3.org/1999/xlink">
	<desc>
			Created with Pixso.
	</desc>
	<defs>
		<clipPath id="clip1_145">
			<rect id="Frame" rx="0.000000" width="191.000000" height="69.000000" transform="translate(0.500000 0.500000)" fill="white" fill-opacity="0"/>
		</clipPath>
	</defs>
	<g clip-path="url(#clip1_145)">
		<path id="Vector" d="M61.17 69.91L130.82 69.91L130.82 0.08L61.17 0.08L61.17 69.91Z" fill="#222222" fill-opacity="1.000000" fill-rule="evenodd"/>
		<path id="Vector" d="M96 4.02C78.94 4.02 65.1 17.89 65.1 35C65.1 52.1 78.94 65.97 95.99 65.97C113.05 65.97 126.89 52.1 126.89 35C126.89 17.89 113.05 4.02 95.99 4.02L96 4.02Z" fill="#FFFFFF" fill-opacity="1.000000" fill-rule="evenodd"/>
		<path id="Vector" d="M94.07 35.86L88.63 30.4L82.33 36.71L82.33 38.83L83.92 37.24L88.31 41.65L86.69 43.27L87.74 44.34L96.52 35.52L96.52 33.41L94.07 35.86ZM68.61 29.25L78.33 29.25L78.33 31.35L76.71 31.35L76.71 38.14L82.33 35L82.33 40.76L68.61 40.76L68.61 38.65L70.24 38.65L70.24 31.35L68.61 31.35L68.61 29.25ZM109.57 29.25L109.57 31.35L111.2 31.35L111.2 38.65L109.57 38.65L109.57 40.76L123.3 40.76L123.3 35L117.67 38.14L117.67 31.35L119.3 31.35L119.3 29.25L109.57 29.25ZM87.82 22.7C89.73 22.7 91.28 24.25 91.28 26.16C91.28 28.08 89.73 29.63 87.82 29.63C85.91 29.63 84.36 28.08 84.36 26.16C84.36 24.25 85.91 22.7 87.82 22.7L87.82 22.7Z" fill="#222222" fill-opacity="1.000000" fill-rule="evenodd"/>
		<path id="Vector" d="M104.16 29.25L94.9 29.25L94.9 31.35L96.52 31.35L96.52 38.65L94.9 38.65L94.9 40.76L104.16 40.76C111.01 40.76 111.08 29.25 104.16 29.25Z" fill="#222222" fill-opacity="1.000000" fill-rule="evenodd"/>
		<path id="Vector" d="M102.86 37.17L102.4 37.17L102.4 32.82L102.79 32.82C104.81 32.82 104.81 37.18 102.86 37.17Z" fill="#FFFFFF" fill-opacity="1.000000" fill-rule="evenodd"/>
	</g>
</svg>
