<svg width="114.010849" height="38.619675" viewBox="0 0 114.011 38.6197" fill="none" xmlns="http://www.w3.org/2000/svg" xmlns:xlink="http://www.w3.org/1999/xlink">
	<desc>
			Created with Pixso.
	</desc>
	<defs/>
	<path id="Fill 5" d="M78.06 33.18L93.36 33.18L93.36 5.84L78.06 5.84L78.06 33.18Z" fill="#EA5C0F" fill-opacity="1.000000" fill-rule="evenodd"/>
	<path id="Fill 7" d="M79.03 19.51C79.03 13.96 81.64 9.02 85.71 5.84C82.73 3.51 78.98 2.12 74.9 2.12C65.24 2.12 57.41 9.9 57.41 19.51C57.41 29.11 65.24 36.89 74.9 36.89C78.98 36.89 82.73 35.5 85.71 33.18C81.64 29.99 79.03 25.05 79.03 19.51Z" fill="#DD0C17" fill-opacity="1.000000" fill-rule="evenodd"/>
	<path id="Fill 8" d="M114.01 19.51C114.01 29.11 106.18 36.89 96.52 36.89C92.44 36.89 88.68 35.5 85.71 33.18C89.78 29.99 92.39 25.05 92.39 19.51C92.39 13.96 89.78 9.02 85.71 5.84C88.68 3.51 92.44 2.12 96.52 2.12C106.18 2.12 114.01 9.9 114.01 19.51Z" fill="#F79E1B" fill-opacity="1.000000" fill-rule="evenodd"/>
	<path id="Fill 9" d="M113.46 30.44L113.46 29.61L113.28 29.61L113.08 30.18L112.88 29.61L112.7 29.61L112.7 30.44L112.82 30.44L112.82 29.81L113.01 30.35L113.14 30.35L113.34 29.81L113.34 30.44L113.46 30.44ZM112.34 30.44L112.34 29.75L112.56 29.75L112.56 29.61L111.99 29.61L111.99 29.75L112.21 29.75L112.21 30.44L112.34 30.44Z" fill="#F69F00" fill-opacity="1.000000" fill-rule="evenodd"/>
	<path id="Fill 7" d="M36.86 11.2C35.31 8.82 32.23 7.97 29.68 9.22C26.96 10.6 25.87 13.92 27.26 16.63C28.04 18.18 29.51 19.27 31.22 19.57C31.02 26.12 25.53 31.25 18.97 31.05C12.6 30.84 7.52 25.66 7.46 19.3C7.45 14.4 10.51 10.01 15.11 8.31C16 8 16.51 7.07 16.31 6.15L16.29 6.09C16.07 5.09 16.7 4.09 17.7 3.87C17.79 3.85 17.87 3.84 17.95 3.83C18.42 3.79 18.88 3.77 19.35 3.77C19.93 3.77 20.5 3.8 21.08 3.86C22.12 3.97 23.05 3.23 23.16 2.19C23.17 2.16 23.17 2.12 23.17 2.09C23.2 1.06 22.42 0.19 21.39 0.1C20.71 0.03 20.03 0 19.35 0C8.66 0 0 8.64 0 19.31C0 29.97 8.66 38.61 19.35 38.61C30.04 38.61 38.7 29.97 38.7 19.31C38.7 17.42 38.32 13.35 36.86 11.2Z" fill="#222222" fill-opacity="1.000000" fill-rule="evenodd"/>
	<path id="Fill 9" d="M26.65 1.46C27.75 1.46 28.65 2.36 28.65 3.46C28.65 4.57 27.75 5.46 26.65 5.46C25.54 5.46 24.64 4.57 24.64 3.46C24.64 2.36 25.54 1.46 26.65 1.46Z" fill="#222222" fill-opacity="1.000000" fill-rule="evenodd"/>
</svg>
