<svg width="193.000000" height="70.000000" viewBox="0 0 193 70" fill="none" xmlns="http://www.w3.org/2000/svg" xmlns:xlink="http://www.w3.org/1999/xlink">
	<desc>
			Created with Pixso.
	</desc>
	<defs>
		<clipPath id="clip1_157">
			<rect id="Frame" rx="0.000000" width="192.000000" height="69.000000" transform="translate(0.500000 0.500000)" fill="white" fill-opacity="0"/>
		</clipPath>
	</defs>
	<g clip-path="url(#clip1_157)">
		<path id="Vector" d="M163.09 30.83C163 30.72 162.86 30.65 162.71 30.65L160.11 30.65C159.88 30.65 159.67 30.81 159.62 31.05L159.42 32.03C158.85 31.51 158.27 31.18 157.45 30.86L157.19 30.75C157.16 30.74 157.13 30.72 157.09 30.72C154.28 30.1 151.44 30.95 149.12 33.1C147.97 34.16 147.09 35.4 146.5 36.72L149.92 22.91C149.95 22.8 149.92 22.68 149.85 22.59C149.78 22.5 149.67 22.44 149.55 22.44L146.39 22.44C146.28 22.44 146.18 22.49 146.11 22.57L132.36 38.05C132.84 35.73 135.55 22.89 135.55 22.89C135.55 22.87 135.55 22.84 135.55 22.82C135.55 22.73 135.53 22.65 135.47 22.58C135.4 22.49 135.29 22.44 135.18 22.44L131.69 22.44C131.58 22.44 131.47 22.49 131.4 22.57L113.97 42.66C113.67 39.74 112.28 36.55 112.28 36.55C109.94 31.77 104.74 30.23 101.79 32.97L101.77 32.97L101.31 33.31C103.45 29.9 108.88 30.05 112.37 34.06C112.37 34.06 113.92 35.92 115.02 38.69C115.32 37.72 115.5 36.7 115.55 35.66C113.73 33.21 111.68 31.77 111.68 31.77C107.27 28.8 101.99 30.05 100.81 33.89L100.79 33.91L100.56 34.43C100.71 30.41 105.48 27.84 110.51 29.57C110.51 29.57 112.88 30.44 115.28 32.36C115.24 32.21 115.21 32.05 115.17 31.9C114.91 30.88 114.53 29.92 114.05 29.02C111.26 27.82 108.79 27.59 108.79 27.59C103.47 27.23 99.53 30.94 100.43 34.86L100.43 34.88L100.49 35.45C98.6 31.89 101.44 27.29 106.67 26.27C106.67 26.27 109.09 25.85 112.08 26.29C111.32 25.5 110.46 24.8 109.5 24.21C106.51 24.56 104.28 25.59 104.28 25.59C99.49 27.92 97.94 33.11 100.69 36.05L100.69 36.07L101.03 36.53C97.61 34.4 97.77 28.99 101.78 25.5C101.78 25.5 103.66 23.94 106.45 22.84C105.3 22.49 104.11 22.32 102.9 22.31C100.57 24.08 99.2 26.01 99.2 26.01C96.23 30.41 97.48 35.68 101.34 36.86L101.35 36.87L101.87 37.1C97.85 36.96 95.27 32.2 97 27.17C97 27.17 97.8 25.01 99.56 22.73C98.55 22.99 97.6 23.37 96.7 23.85C95.57 26.56 95.35 28.91 95.35 28.91C94.98 34.21 98.71 38.14 102.64 37.25L102.66 37.25L103.23 37.19C99.66 39.07 95.04 36.24 94.03 31.02C94.03 31.02 93.62 28.69 94.03 25.79C93.18 26.59 92.44 27.51 91.82 28.54C92.2 31.4 93.18 33.5 93.18 33.5C95.51 38.28 100.71 39.83 103.66 37.09L103.68 37.08L104.15 36.75C102.01 40.15 96.58 40 93.09 35.99C93.09 35.99 91.3 33.76 90.36 31.16C90.36 31.04 90.33 30.92 90.25 30.83C90.15 30.72 90.01 30.65 89.86 30.65L87.27 30.65C87.03 30.65 86.83 30.81 86.78 31.05C86.78 31.05 86.58 31.35 86.49 31.94C85.91 31.43 85.23 31.13 84.6 30.86L84.34 30.75C84.31 30.74 84.28 30.72 84.25 30.72C81.43 30.1 78.6 30.95 76.28 33.1C74.91 34.36 73.92 35.85 73.36 37.47L73.31 37.57L74.42 31.23C74.44 31.09 74.4 30.94 74.31 30.83C74.21 30.71 74.07 30.65 73.92 30.65L71.15 30.65C70.91 30.65 70.7 30.83 70.66 31.07L67.8 46.62C67.78 46.77 67.82 46.92 67.91 47.03C68.01 47.14 68.15 47.21 68.3 47.21L71.21 47.22C71.46 47.22 71.67 47.04 71.71 46.8L72.81 40.47C72.82 40.51 72.83 40.54 72.83 40.54C72.82 41.17 72.87 41.8 72.99 42.44C73.42 44.82 75.53 47.04 77.81 47.49C79.8 47.85 81.93 47.35 84.03 46.06C83.98 46.28 83.92 46.62 83.92 46.62C83.91 46.65 83.91 46.68 83.91 46.71C83.91 46.83 83.95 46.94 84.03 47.03C84.12 47.15 84.26 47.21 84.41 47.21L86.99 47.22C87.23 47.22 87.44 47.05 87.48 46.81L89.75 34.57C91.44 36.57 93.66 38.29 93.66 38.29C98.07 41.26 103.35 40.01 104.53 36.16L104.55 36.15L104.78 35.63C104.64 39.64 99.86 42.22 94.83 40.49C94.83 40.49 92.66 39.69 90.37 37.94C90.39 38.02 90.41 38.11 90.43 38.19C90.7 39.24 91.09 40.24 91.6 41.17C94.26 42.26 96.56 42.47 96.56 42.47C101.87 42.84 105.81 39.12 104.91 35.2L104.92 35.18L104.85 34.61C106.74 38.16 103.9 42.78 98.67 43.79C98.67 43.79 96.39 44.19 93.52 43.8C94.21 44.52 94.98 45.16 95.83 45.72C98.8 45.36 101 44.34 101 44.34C105.79 42.01 107.34 36.82 104.59 33.88L104.59 33.86L104.25 33.4C107.67 35.53 107.52 40.95 103.5 44.43C103.5 44.43 101.58 46.02 98.75 47.13C99.53 47.39 100.33 47.58 101.15 47.68L102.31 47.68C104.68 45.89 106.07 43.93 106.07 43.93C109.05 39.52 107.8 34.25 103.94 33.08L103.93 33.06L103.41 32.83C107.43 32.97 110.01 37.74 108.28 42.76C108.28 42.76 107.42 45.11 105.5 47.49C105.65 47.46 105.8 47.43 105.95 47.39C106.93 47.14 107.84 46.78 108.69 46.34C109.88 43.58 110.1 41.14 110.1 41.14C110.48 35.84 106.75 31.9 102.82 32.81L102.8 32.8L102.23 32.86C105.79 30.98 110.41 33.82 111.43 39.03C111.43 39.03 112.02 41.42 111.58 44.26C111.49 44.67 111.32 45.26 110.99 45.9C110.89 46.07 110.76 46.28 110.61 46.52L110.62 46.52C110.61 46.52 110.61 46.53 110.6 46.54C110.6 46.54 110.6 46.54 110.6 46.55C110.54 46.65 110.53 46.78 110.58 46.89C110.64 47.02 110.77 47.11 110.92 47.11L112.54 47.11C113.39 47.1 114.12 47.1 115.1 47.13C115.21 47.13 115.32 47.08 115.4 47L129.48 30.2C128.88 33.27 127.2 41.15 125.99 46.68C125.99 46.7 125.99 46.73 125.99 46.76C125.99 46.84 126.01 46.92 126.07 46.99C126.14 47.08 126.25 47.13 126.36 47.13L129.21 47.11C129.32 47.11 129.42 47.06 129.49 46.98C129.49 46.98 142.12 32.24 143.74 30.36C143.07 33.43 141.22 41.2 139.91 46.67C139.9 46.7 139.89 46.73 139.89 46.76C139.89 46.84 139.92 46.92 139.98 46.99C140.05 47.08 140.15 47.13 140.27 47.13L143.64 47.13C143.81 47.13 143.96 47.01 144 46.84L145.46 40.94L145.67 40.11C145.67 40.35 145.68 40.54 145.68 40.54C145.67 41.17 145.72 41.8 145.84 42.44C146.26 44.82 148.38 47.04 150.66 47.49C152.64 47.85 154.77 47.35 156.87 46.06L156.76 46.62C156.76 46.65 156.75 46.68 156.75 46.71C156.75 46.83 156.8 46.94 156.87 47.03C156.97 47.15 157.11 47.21 157.25 47.21L159.83 47.22C160.08 47.22 160.28 47.05 160.33 46.81L162.65 34.48L163.21 31.16C163.21 31.04 163.17 30.92 163.09 30.83L163.09 30.83ZM1.37 46.89L1.37 46.58C1.38 46.55 1.4 46.52 1.42 46.49L22.23 22.57C22.3 22.49 22.4 22.44 22.51 22.44L25.87 22.44C25.98 22.44 26.09 22.49 26.16 22.58C26.22 22.65 26.25 22.73 26.25 22.82C26.25 22.84 26.24 22.87 26.24 22.89C26.24 22.89 23.63 35.73 23.15 38.05C24.79 36.2 36.9 22.57 36.9 22.57C36.97 22.49 37.07 22.44 37.18 22.44L40.34 22.44C40.45 22.44 40.56 22.5 40.64 22.59C40.71 22.68 40.73 22.8 40.7 22.91L37.38 36.35C37.41 36.3 37.43 36.25 37.46 36.2C39.04 33.14 42.04 30.98 45.29 30.59C45.3 30.58 45.31 30.58 45.32 30.58C48.26 30.44 50.53 31.54 51.89 33.78L51.91 33.82C52.4 34.8 52.76 36.11 52.83 37.47C53.38 35.85 54.37 34.36 55.74 33.1C58.06 30.95 60.89 30.1 63.71 30.72C63.74 30.72 63.77 30.74 63.8 30.75L64.06 30.86C64.69 31.13 65.37 31.43 65.94 31.94C66.25 30.51 67.14 26.26 67.14 26.26C67.19 26.03 67.4 25.87 67.63 25.87L70.23 25.87C70.38 25.87 70.52 25.93 70.62 26.05C70.71 26.16 70.75 26.31 70.73 26.46L66.94 46.81C66.9 47.05 66.69 47.22 66.45 47.22L63.87 47.21C63.72 47.21 63.58 47.15 63.48 47.03C63.41 46.94 63.37 46.83 63.37 46.71C63.37 46.68 63.37 46.65 63.38 46.62C63.38 46.62 63.44 46.28 63.48 46.06C61.39 47.35 59.26 47.85 57.27 47.49C55 47.04 52.88 44.82 52.45 42.44C52.33 41.8 52.28 41.17 52.29 40.54C52.2 40.62 52.08 40.67 51.95 40.67L40 40.67C39.99 40.72 39.98 40.77 39.98 40.82C39.98 41 40.05 41.24 40.13 41.51L40.18 41.68C40.75 43.07 42.11 43.94 43.65 43.91C45.19 43.87 46.61 43.14 47.87 41.73C47.97 41.62 48.1 41.56 48.24 41.56L50.91 41.56C51.08 41.56 51.24 41.65 51.33 41.8C51.42 41.94 51.44 42.12 51.36 42.28C49.85 45.45 46.46 47.58 42.9 47.58C40.42 47.49 38.34 46.28 37.19 44.27C36.61 43.2 36.34 41.87 36.36 40.51L34.79 46.84C34.75 47.01 34.6 47.13 34.43 47.13L31.06 47.13C30.94 47.13 30.83 47.08 30.76 46.99C30.71 46.92 30.68 46.84 30.68 46.76C30.68 46.73 30.68 46.7 30.69 46.67C32.01 41.2 33.85 33.43 34.52 30.36L20.28 46.98C20.21 47.06 20.11 47.11 20 47.11L17.15 47.13C17.04 47.13 16.93 47.08 16.86 46.99C16.8 46.92 16.77 46.84 16.77 46.76C16.77 46.73 16.77 46.7 16.78 46.68C17.98 41.15 19.67 33.27 20.26 30.2L6.18 47C6.11 47.08 6 47.13 5.88 47.13C4.91 47.1 4.18 47.1 3.33 47.11L1.7 47.11C1.56 47.11 1.43 47.02 1.37 46.89ZM158.46 39.33C157.88 41.36 155.95 43.29 154.07 43.75C152.63 43.94 151.57 43.81 150.84 43.33C150.06 42.8 149.67 41.87 149.37 41.04C149.32 40.75 149.29 40.45 149.29 40.15C149.29 38.3 150.28 36.52 152.11 35.15C153.16 34.42 154.59 34.14 155.84 34.43C156.54 34.59 157.51 35.01 158.11 36.1C158.45 36.69 158.63 37.44 158.63 38.17C158.63 38.57 158.57 38.97 158.46 39.33ZM41.13 36.99L48.87 36.92C48.81 36.37 48.52 35.85 47.91 35.24C47.23 34.66 46.31 34.39 44.99 34.38C43.57 34.58 41.9 35.51 41.13 36.99ZM65.08 39.33C65.19 38.97 65.24 38.57 65.24 38.17C65.24 37.44 65.06 36.69 64.73 36.1C64.12 35.01 63.16 34.59 62.45 34.43C61.2 34.14 59.77 34.42 58.72 35.15C56.9 36.52 55.9 38.3 55.9 40.15C55.9 40.45 55.93 40.75 55.98 41.04C56.28 41.87 56.67 42.8 57.45 43.33C58.18 43.81 59.24 43.94 60.68 43.75C62.56 43.29 64.49 41.36 65.08 39.33ZM71.38 26.26L70.78 29.54C70.75 29.68 70.79 29.83 70.89 29.95C70.98 30.06 71.12 30.13 71.28 30.13L74.19 30.13C74.44 30.13 74.65 29.96 74.69 29.72L75.24 26.48C75.26 26.33 75.22 26.18 75.13 26.07C75.03 25.95 74.89 25.89 74.75 25.89L71.88 25.86C71.64 25.86 71.43 26.03 71.38 26.26ZM85.62 39.33C85.03 41.36 83.1 43.29 81.22 43.75C79.78 43.94 78.73 43.81 77.99 43.33C77.21 42.8 76.83 41.87 76.52 41.04C76.47 40.75 76.44 40.45 76.44 40.15C76.44 38.3 77.44 36.52 79.26 35.15C80.31 34.42 81.74 34.14 82.99 34.43C83.7 34.59 84.66 35.01 85.27 36.1C85.6 36.69 85.78 37.44 85.78 38.17C85.78 38.57 85.73 38.97 85.62 39.33ZM181.59 45.77L176.78 38.06C177.17 37.61 181.27 32.63 182.1 31.65L181.73 33.58C181.7 33.73 181.74 33.88 181.84 34C181.93 34.11 182.07 34.18 182.22 34.18L183.5 34.18C183.35 35.06 182.02 43.16 181.59 45.77ZM167.59 31.6L167.65 31.24C167.68 31.1 167.64 30.94 167.54 30.83C167.45 30.72 167.31 30.65 167.16 30.65L164.56 30.65C164.32 30.65 164.11 30.82 164.07 31.05L163.99 31.45L161.22 46.58C161.19 46.73 161.24 46.88 161.33 46.99C161.43 47.1 161.58 47.17 161.73 47.17L163.01 47.15L164.22 47.15C164.46 47.15 164.66 46.98 164.71 46.75L166.61 37.36C167.24 34.98 168.82 34.27 170.22 34.06C170.29 34.05 170.58 34.06 170.64 34.02C169.68 39.71 168.54 46.46 168.52 46.57C168.5 46.71 168.54 46.86 168.64 46.97C168.73 47.08 168.87 47.15 169.01 47.15L171.81 47.15C172.03 47.15 172.23 47.01 172.29 46.8C172.38 46.52 173.05 42.65 173.45 40.33C174.48 41.9 177.79 46.92 177.79 46.92C177.89 47.06 178.04 47.14 178.21 47.14L181.55 47.15C181.61 47.15 181.67 47.13 181.73 47.12C181.8 47.15 181.88 47.17 181.95 47.17L184.78 47.15C185.02 47.15 185.23 46.97 185.27 46.74L187.45 34.18L190.69 34.18C190.93 34.18 191.14 34 191.18 33.76L191.62 31.23C191.62 31.2 191.62 31.18 191.62 31.14C191.62 31.03 191.58 30.92 191.51 30.83C191.41 30.72 191.27 30.65 191.12 30.65L187.93 30.65C188.09 29.75 188.65 26.45 188.65 26.45C188.66 26.42 188.66 26.39 188.66 26.37C188.66 26.25 188.62 26.13 188.54 26.05C188.45 25.93 188.31 25.87 188.16 25.87L185.36 25.87C185.11 25.87 184.91 26.04 184.86 26.28C184.86 26.28 184.24 29.97 184.12 30.65C183.87 30.66 183.61 30.66 183.61 30.66L183.17 30.67L182.71 30.66C182.53 30.65 182.37 30.75 182.28 30.89C182.19 30.75 182.03 30.66 181.86 30.66L179.3 30.66L178.54 30.66C178.4 30.66 178.27 30.72 178.18 30.82C178.18 30.82 175.59 33.77 174.22 35.25C174.62 32.9 175.73 26.46 175.73 26.46C175.73 26.43 175.73 26.4 175.73 26.37C175.73 26.26 175.69 26.14 175.61 26.05C175.52 25.94 175.38 25.87 175.23 25.87L172.44 25.87C172.19 25.87 171.98 26.04 171.94 26.28C171.88 26.66 171.59 28.38 171.2 30.67L171.19 30.65C171.09 30.53 170.95 30.47 170.79 30.48C169.6 30.51 168.53 31 167.59 31.6Z" fill="#222222" fill-opacity="1.000000" fill-rule="evenodd"/>
	</g>
</svg>
