<svg width="193.000000" height="70.000000" viewBox="0 0 193 70" fill="none" xmlns="http://www.w3.org/2000/svg" xmlns:xlink="http://www.w3.org/1999/xlink">
	<desc>
			Created with Pixso.
	</desc>
	<defs>
		<clipPath id="clip1_135">
			<rect id="Frame" rx="0.000000" width="192.000000" height="69.000000" transform="translate(0.500000 0.500000)" fill="white" fill-opacity="0"/>
		</clipPath>
	</defs>
	<g clip-path="url(#clip1_135)">
		<path id="Vector" d="M68.34 30.23L56.49 30.23C56.09 30.23 55.79 29.93 55.79 29.53L55.79 28.07C55.78 27.72 55.9 27.56 56.12 27.28L65.55 16.23L56.3 16.23C55.91 16.23 55.61 15.93 55.61 15.53L55.61 14.5C55.61 14.1 55.91 13.8 56.3 13.8L68.28 13.8C68.67 13.8 68.97 14.1 68.97 14.5L68.97 15.99C68.98 16.25 68.89 16.48 68.67 16.72L59.22 27.8L68.34 27.8C68.73 27.8 69.03 28.1 69.03 28.5L69.03 29.53C69.03 29.93 68.73 30.23 68.34 30.23L68.34 30.23ZM91.7 30.54L91.7 30.54C92.55 30.52 93.18 30.35 93.42 30.07C93.51 29.97 93.55 29.86 93.54 29.75C93.54 29.66 93.54 29.66 93.3 28.56L93.3 28.53C93.25 28.24 93.04 28.11 92.88 28.11L92.85 28.11C92.85 28.11 92.64 28.1 92.43 28.1L92.43 28.1C91.82 28.08 91.32 27.99 91.31 27.1L91.31 8.43C91.31 8.12 91.12 7.8 90.77 7.79L90.66 7.79L89.01 8.22C88.72 8.25 88.43 8.45 88.44 8.83L88.44 27.16C88.45 29.34 89.6 30.53 91.7 30.54L91.7 30.54ZM125.15 30.23L123.68 30.23C123.28 30.23 122.98 29.93 122.98 29.53L122.98 18.29C122.95 16.39 122.39 15.86 120.36 15.83C118.06 15.83 115.74 16.41 114.97 16.63L114.97 29.53C114.97 29.94 114.69 30.23 114.3 30.23L112.8 30.23C112.4 30.23 112.1 29.93 112.1 29.53L112.1 16.93C112.08 15.76 112.19 14.95 113.84 14.42C115.41 13.87 118.43 13.4 120.42 13.4C124.22 13.41 125.84 14.79 125.85 18.02L125.85 29.53C125.85 29.93 125.55 30.23 125.15 30.23L125.15 30.23ZM139.99 16.29C139.44 16.15 137.9 15.8 136.17 15.8C132.99 15.83 131.65 16.7 131.62 22.03C131.66 27.88 133.38 28.19 136.2 28.22L136.2 28.35L136.2 28.22C137.95 28.22 139.46 27.85 139.99 27.71L139.99 16.29ZM140.77 30.01L140.59 30.06C139.65 30.3 138.37 30.63 136.11 30.63L136.11 30.63C129.89 30.62 128.67 27.46 128.66 22C128.67 15.74 130.64 13.41 135.92 13.4C137.79 13.4 139.08 13.64 140 13.87L139.99 8.83C139.98 8.6 140.08 8.32 140.6 8.22L142.25 7.79L142.34 7.79C142.72 7.8 142.86 8.14 142.86 8.43L142.86 27.38C142.88 28.57 142.74 29.6 140.77 30.01ZM152.82 28.19C148.75 28.18 148.55 26.07 148.52 22.03C148.55 17.97 148.75 15.85 152.82 15.83C156.9 15.85 157.1 17.97 157.13 22.03C157.1 26.07 156.9 28.18 152.82 28.19L152.82 28.19ZM152.82 13.4C146.11 13.41 145.54 17.86 145.53 22.03C145.54 26.18 146.11 30.62 152.82 30.63L152.83 30.63C159.54 30.62 160.11 26.2 160.12 22.03C160.11 17.67 159.54 13.41 152.82 13.4L152.82 13.4ZM106.26 22.12C105.59 22.12 102.33 22.18 101.03 22.46L100.93 22.48C99.47 22.81 98.31 23.07 98.3 25.25C98.3 27.99 100.38 28.24 102.51 28.25L102.52 28.38L102.52 28.25C103.85 28.25 105.11 28.06 106.26 27.69L106.26 22.12L106.26 22.12ZM109.15 18.11L109.15 26.83C109.18 29 108.62 29.69 106.46 30.2C105.51 30.39 104.06 30.63 102.48 30.63C100.16 30.62 95.34 30.61 95.34 25.37C95.32 21.24 97.78 20.52 100.76 20.06C102.71 19.75 104.69 19.7 105.7 19.7C105.97 19.7 106.15 19.7 106.25 19.71L106.25 18.23C106.24 17.25 106.23 16.65 105.32 16.3C104.76 16.07 103.92 15.96 102.67 15.96C100.61 15.96 98.77 16.42 97.55 16.73L97.09 16.84C97.04 16.85 96.98 16.86 96.91 16.87C96.7 16.87 96.46 16.74 96.38 16.45L96.37 16.43L96.09 15.02L96.09 14.95C96.1 14.62 96.33 14.43 96.55 14.36C97.54 13.99 100.14 13.4 102.94 13.4C104.98 13.4 106.46 13.67 107.45 14.22C109.15 15.13 109.15 16.78 109.15 18.11L109.15 18.11ZM82.15 27.69C81 28.06 79.74 28.25 78.4 28.25L78.4 28.38L78.4 28.25C76.27 28.24 74.19 27.99 74.18 25.25C74.2 23.07 75.35 22.81 76.81 22.48L76.91 22.46C78.21 22.18 81.48 22.12 82.15 22.12L82.15 27.69ZM83.34 14.22C82.34 13.67 80.87 13.4 78.82 13.4C76.02 13.4 73.43 13.99 72.44 14.36C72.22 14.43 71.98 14.62 71.98 14.95L71.98 15.02L72.26 16.43L72.26 16.45C72.35 16.74 72.58 16.87 72.8 16.87L72.8 16.87C72.87 16.86 72.92 16.85 72.97 16.84L73.44 16.73C74.66 16.42 76.5 15.96 78.56 15.96C79.8 15.96 80.64 16.07 81.21 16.3C82.12 16.65 82.12 17.25 82.14 18.23L82.14 19.71C82.03 19.7 81.85 19.7 81.58 19.7C80.58 19.7 78.59 19.75 76.65 20.06C73.67 20.52 71.21 21.24 71.23 25.37C71.23 30.61 76.05 30.62 78.37 30.63C79.94 30.63 81.4 30.39 82.34 30.2C84.51 29.69 85.06 29 85.03 26.83L85.03 18.11C85.03 16.78 85.04 15.13 83.34 14.22Z" fill="#222222" fill-opacity="1.000000" fill-rule="evenodd"/>
		<path id="Vector" d="M144.5 48.97C144.47 47.84 144.41 46.74 144.13 45.64C143.63 43.7 142.48 43.1 140.14 43.1C137.75 43.1 136.63 43.73 136.13 45.64C135.85 46.71 135.82 47.87 135.79 49L144.5 48.97L144.5 48.97ZM147.45 49.18L147.45 50.72C147.45 50.94 147.24 51.19 147.02 51.19L135.82 51.19C135.82 52.85 136.16 53.79 136.88 54.58C137.75 55.58 139.18 55.93 141.23 55.93C143.16 55.93 144.41 55.52 145.74 55.14C145.81 55.11 145.87 55.11 145.93 55.11C146.09 55.11 146.18 55.2 146.27 55.42L146.61 56.71C146.64 56.74 146.64 56.8 146.64 56.83C146.64 57.02 146.52 57.15 146.3 57.21C145.09 57.71 143.04 58.15 140.89 58.15C134.8 58.15 132.84 55.39 132.84 49.53C132.84 44.11 134.05 40.88 140.18 40.88C143.41 40.88 145.31 41.85 146.36 43.54C147.24 44.99 147.45 46.93 147.45 49.18ZM126.89 55.39C126.89 55.39 125.15 55.96 123.01 55.96C119.99 55.96 118.34 55.33 118.34 49.53C118.34 44.14 119.74 43.1 122.98 43.1C125.06 43.1 126.89 43.6 126.89 43.6L126.89 55.39ZM129.76 58.82L129.76 44.08C129.76 42.91 129.66 42.01 127.73 41.54C126.61 41.25 124.97 40.88 122.76 40.88C117.16 40.88 115.36 43.35 115.36 49.56C115.36 55.2 116.66 58.15 122.67 58.15C124.91 58.15 126 57.86 126.99 57.61L126.88 57.76L126.88 60.18C126.8 62.09 125.92 63.58 122.57 63.58C120.09 63.58 118.63 62.87 117.93 61.24C117.83 61.09 117.66 61.04 117.46 61.13L115.97 61.73C115.73 61.82 115.66 62.02 115.75 62.24L115.74 62.24C116.53 64.6 118.57 65.86 122.57 65.86C128.75 65.86 129.76 62.64 129.76 59.35L129.76 58.82L129.76 58.82L129.76 58.82ZM112.28 45.46L112.28 57.27C112.28 57.55 112.12 57.74 111.81 57.74L109.88 57.74C109.57 57.74 109.38 57.55 109.38 57.27L109.38 45.8C109.38 43.79 108.64 43.1 106.62 43.1C103.97 43.1 101.27 43.89 101.27 43.89L101.27 57.28C101.27 57.56 101.11 57.74 100.8 57.74L98.87 57.74C98.56 57.74 98.38 57.56 98.38 57.28L98.38 44.14C98.38 42.91 98.56 42.38 100.18 41.85C101.8 41.32 104.78 40.88 106.77 40.88C110.51 40.88 112.28 42.01 112.28 45.46L112.28 45.46ZM94.8 40.87L94.68 40.87L92.69 41.35C92.41 41.38 92.25 41.5 92.25 41.82L92.28 51.94C92.28 54.14 91.91 55.96 88.21 55.96C85.1 55.96 84.14 54.73 84.14 52.01L84.14 41.32C84.14 41.1 84.04 40.88 83.8 40.88L83.7 40.88L81.68 41.32C81.43 41.38 81.24 41.51 81.24 41.79L81.24 51.76C81.24 55.96 82.83 58.15 88.21 58.15C94.4 58.15 95.14 55.02 95.14 51.73L95.14 41.32C95.14 41.07 95.05 40.88 94.8 40.88L94.8 40.87ZM75.43 49.53C75.43 45.58 75.25 43.1 71.02 43.1C66.82 43.1 66.63 45.58 66.63 49.53C66.63 53.45 66.82 55.92 71.02 55.92C75.25 55.92 75.43 53.45 75.43 49.53ZM78.42 49.53C78.42 54.26 77.64 58.15 71.02 58.15C64.43 58.15 63.62 54.26 63.62 49.53C63.62 44.76 64.43 40.88 71.02 40.88C77.64 40.88 78.42 44.76 78.42 49.53ZM61.86 55.64C61.83 55.64 61.8 55.67 61.74 55.67C61.55 55.71 61.08 55.8 60.65 55.8C60.03 55.8 59.28 55.61 59.28 54.48L59.28 35.72C59.28 35.47 59.19 35.28 58.94 35.28L58.85 35.28L56.82 35.75C56.54 35.78 56.39 35.91 56.39 36.19L56.39 54.61C56.39 56.96 57.69 58.06 59.78 58.06C61.02 58.06 61.89 57.78 62.14 57.65C62.2 57.65 62.39 57.56 62.39 57.31L62.39 57.21L62.11 55.93C62.08 55.71 61.99 55.64 61.86 55.64Z" fill="#222222" fill-opacity="1.000000" fill-rule="evenodd"/>
		<path id="Vector" d="M47.32 19.04L47.32 19.05L47.12 18.83C44.33 15.74 38.53 12.01 31.97 12.01C29.92 12.01 28.86 17.64 28.95 22.87L28.95 22.87C29.05 27.49 30.09 31.91 32.13 31.91C39.97 31.91 48.9 24.59 48.9 21.97C48.9 21.31 48.22 20.04 47.32 19.04L47.32 19.04Z" fill="#222222" fill-opacity="1.000000" fill-rule="evenodd"/>
	</g>
</svg>
